<?xml version="1.0" encoding="UTF-8" standalone="no"?>
<!-- Created with Inkscape (http://www.inkscape.org/) -->

<svg
   width="210mm"
   height="297mm"
   viewBox="0 0 210 297"
   version="1.1"
   id="svg5"
   inkscape:version="1.1.2 (0a00cf5339, 2022-02-04)"
   sodipodi:docname="tplanr.svg"
   xmlns:inkscape="http://www.inkscape.org/namespaces/inkscape"
   xmlns:sodipodi="http://sodipodi.sourceforge.net/DTD/sodipodi-0.dtd"
   xmlns="http://www.w3.org/2000/svg"
   xmlns:svg="http://www.w3.org/2000/svg">
  <sodipodi:namedview
     id="namedview7"
     pagecolor="#ffffff"
     bordercolor="#666666"
     borderopacity="1.0"
     inkscape:pageshadow="2"
     inkscape:pageopacity="0.0"
     inkscape:pagecheckerboard="0"
     inkscape:document-units="mm"
     showgrid="false"
     inkscape:zoom="0.56569165"
     inkscape:cx="481.71119"
     inkscape:cy="509.11128"
     inkscape:window-width="1920"
     inkscape:window-height="1153"
     inkscape:window-x="4080"
     inkscape:window-y="22"
     inkscape:window-maximized="1"
     inkscape:current-layer="layer1" />
  <defs
     id="defs2">
    <inkscape:path-effect
       effect="fillet_chamfer"
       id="path-effect2697"
       is_visible="true"
       lpeversion="1"
       satellites_param="F,0,0,1,0,5.2916667,0,1 @ F,0,0,1,0,5.2916667,0,1 @ F,0,0,1,0,5.2916667,0,1 @ F,0,0,1,0,5.2916667,0,1 | F,0,0,1,0,5.2916667,0,1 @ F,0,0,1,0,5.2916667,0,1 @ F,0,0,1,0,5.2916667,0,1 @ F,0,0,1,0,5.2916667,0,1 @ F,0,0,1,0,5.2916667,0,1 @ F,0,0,1,0,5.2916667,0,1 @ F,0,0,1,0,5.2916667,0,1 @ F,0,0,1,0,5.2916667,0,1 @ F,0,0,1,0,5.2916667,0,1"
       unit="px"
       method="auto"
       mode="F"
       radius="20"
       chamfer_steps="1"
       flexible="false"
       use_knot_distance="true"
       apply_no_radius="true"
       apply_with_radius="true"
       only_selected="false"
       hide_knots="false" />
    <inkscape:path-effect
       effect="fillet_chamfer"
       id="path-effect2530"
       is_visible="true"
       lpeversion="1"
       satellites_param="F,0,0,1,0,5.2916667,0,1 @ F,0,0,1,0,5.2916667,0,1 @ F,0,0,1,0,5.2916667,0,1 @ F,0,0,1,0,5.2916667,0,1 | F,0,0,1,0,5.2916667,0,1 @ F,0,0,1,0,5.2916667,0,1 @ F,0,0,1,0,5.2916667,0,1 @ F,0,0,1,0,5.2916667,0,1 @ F,0,0,1,0,5.2916667,0,1 @ F,0,0,1,0,5.2916667,0,1 @ F,0,0,1,0,5.2916667,0,1 @ F,0,0,1,0,5.2916667,0,1 @ F,0,0,1,0,5.2916667,0,1"
       unit="px"
       method="auto"
       mode="F"
       radius="20"
       chamfer_steps="1"
       flexible="false"
       use_knot_distance="true"
       apply_no_radius="true"
       apply_with_radius="true"
       only_selected="false"
       hide_knots="false" />
  </defs>
  <g
     inkscape:label="Layer 1"
     inkscape:groupmode="layer"
     id="layer1">
    <rect
       style="fill:#2c5aa0;stroke:#fefefe;stroke-width:1;stroke-linejoin:round;stroke-miterlimit:4;stroke-dasharray:none;stroke-opacity:1"
       id="rect2386"
       width="176.76593"
       height="121.36099"
       x="-4.7637062"
       y="172.35191"
       rx="10.000007"
       ry="10.000007" />
    <path
       id="path51"
       style="fill:#ff6600;stroke-width:0.264583"
       inkscape:transform-center-y="-7.6230972"
       d="m 151.61447,1.967936 -26.40718,45.738809 h 9.8516 l 16.55558,-28.675769 16.55609,28.675769 h 9.85108 z" />
    <path
       id="rect155-9"
       style="fill:#ffcc00;stroke:none;stroke-width:0.265;fill-opacity:1;stroke-miterlimit:4;stroke-dasharray:none"
       d="m 19.249558,101.08628 v 60.22371 a 5.2916667,5.2916667 45 0 0 5.291667,5.29167 h 60.224226 a 5.2916667,5.2916667 135 0 0 5.291667,-5.29167 V 101.08628 A 5.2916667,5.2916667 45 0 0 84.765451,95.794617 H 24.541225 a 5.2916667,5.2916667 135 0 0 -5.291667,5.291663 z m 31.938296,8.6964 16.704538,34.15084 a 2.9874225,2.9874225 3.3819001 0 0 5.193898,0.30693 l 3.857716,-5.97938 a 4.5092254,4.5092254 172.39335 0 1 6.803863,-0.90863 5.0386137,5.0386137 95.027052 0 1 -0.572725,6.51087 l -5.843122,9.05671 a 9.7114339,9.7114339 151.41446 0 1 -8.160451,4.44655 7.6689971,7.6689971 35.829036 0 1 -6.583804,-4.75346 L 51.187889,129.30756 a 2.5883712,2.5883712 179.99964 0 0 -4.650242,3e-5 l -11.399488,23.30549 a 8.4791016,8.4791016 148.0324 0 1 -7.616758,4.75349 3.024525,3.024525 67.865172 0 1 -1.933559,-4.75349 l 20.949802,-42.83039 a 2.5883497,2.5883497 179.99987 0 1 4.65021,-1e-5 z"
       inkscape:path-effect="#path-effect2530"
       inkscape:original-d="m 19.249558,95.794617 v 70.807043 h 70.80756 V 95.794617 Z m 29.61318,9.234583 21.35477,43.6578 9.59528,-14.87248 6.23114,5.60224 -11.58069,17.94981 h -9.55032 l -16.05018,-32.81247 -16.04967,32.81247 h -9.55032 z" />
    <rect
       style="fill:#ff6600;stroke-width:0.047166"
       id="rect155-6"
       width="19.717957"
       height="8.0802813"
       x="69.900925"
       y="162.4527"
       transform="rotate(-52.709633)" />
    <rect
       style="fill:#918a6f;stroke:none;stroke-width:0.264583"
       id="rect155-3"
       width="70.807167"
       height="70.807167"
       x="19.689804"
       y="6.5054226" />
    <path
       id="path51-7-5"
       style="fill:#ffffff;stroke-width:0.371044"
       inkscape:transform-center-y="-12.483907"
       d="M 46.282191,3.3414896 14.569764,78.2453 H 26.400562 L 46.282191,31.28465 66.164442,78.2453 h 11.83018 l 14.34601,-25.69037 -7.72005,-8.01677 -11.88541,21.28382 z" />
    <text
       xml:space="preserve"
       style="font-style:normal;font-weight:normal;font-size:19.7556px;line-height:1.25;font-family:sans-serif;fill:#000000;fill-opacity:1;stroke:none;stroke-width:0.264583"
       x="120.76517"
       y="232.41757"
       id="text4569"><tspan
         sodipodi:role="line"
         id="tspan4567"
         style="font-style:normal;font-variant:normal;font-weight:bold;font-stretch:normal;font-size:19.7556px;font-family:Ubuntu;-inkscape-font-specification:'Ubuntu Bold';stroke-width:0.264583"
         x="120.76517"
         y="232.41757">tplanr</tspan></text>
    <text
       xml:space="preserve"
       style="font-style:normal;font-weight:normal;font-size:10.5833px;line-height:1.25;font-family:sans-serif;fill:#000000;fill-opacity:1;stroke:none;stroke-width:0.264583"
       x="121.64754"
       y="250.47195"
       id="text4569-0"><tspan
         sodipodi:role="line"
         id="tspan4567-9"
         style="font-style:normal;font-variant:normal;font-weight:normal;font-stretch:normal;font-family:Ubuntu;-inkscape-font-specification:Ubuntu;stroke-width:0.264583"
         x="121.64754"
         y="250.47195">plan | tour | njoy</tspan></text>
    <g
       id="g1185"
       style="stroke-width:3;stroke-miterlimit:4;stroke-dasharray:none">
      <g
         id="g2362"
         transform="translate(-136.34362,5.520755)"
         style="stroke-width:3;stroke-miterlimit:4;stroke-dasharray:none">
        <rect
           style="fill:#2c5aa0;stroke:#fefefe;stroke-width:3;stroke-linejoin:round;stroke-miterlimit:4;stroke-dasharray:none;stroke-opacity:1"
           id="rect1809"
           width="96.570724"
           height="99.692619"
           x="140.25342"
           y="179.37361"
           ry="10"
           rx="10" />
        <path
           style="fill:#ffffff;stroke-width:3;stroke-miterlimit:4;stroke-dasharray:none"
           d="m 150.30496,267.71388 c -1.07674,-0.58832 -1.95808,-2.26906 -1.74597,-3.32959 0.0793,-0.39645 6.94268,-16.99196 15.25197,-36.87891 10.49236,-25.11177 15.28295,-36.31884 15.68109,-36.68427 0.76694,-0.70392 1.96869,-0.69911 2.65177,0.0106 0.28802,0.29925 5.98968,13.62317 12.88454,30.10925 7.72499,18.47097 12.55056,29.72328 12.8545,29.97424 0.81016,0.66892 2.06772,0.78505 2.99131,0.27624 0.69042,-0.38035 1.38815,-1.50248 4.85661,-7.8107 2.59682,-4.72294 4.33983,-7.63421 4.85701,-8.11244 1.63132,-1.50845 3.55132,-1.26951 5.51111,0.68585 1.77422,1.7702 2.46956,3.34632 2.45104,5.55572 -0.0175,2.08625 0.3663,1.27786 -6.60604,13.91457 -5.4475,9.8731 -6.00124,10.63486 -8.62954,11.87147 -1.40857,0.66273 -1.86717,0.75676 -4.07273,0.83521 -3.82061,0.13587 -6.29312,-0.8369 -7.95187,-3.12848 -0.37639,-0.51999 -4.6876,-10.51744 -9.58049,-22.21654 -4.89288,-11.69911 -9.08387,-21.46321 -9.31332,-21.69801 -0.22945,-0.2348 -0.83865,-0.48343 -1.35376,-0.55253 -1.81253,-0.24311 -1.52421,-0.81662 -10.95591,21.79282 -4.7217,11.31874 -8.78866,20.98463 -9.0377,21.47974 -0.71218,1.41595 -2.22213,2.89174 -3.66016,3.57735 -1.11663,0.5324 -1.69737,0.64188 -3.77514,0.71179 -2.11049,0.071 -2.57534,0.0172 -3.30832,-0.38339 z"
           id="path1064" />
      </g>
    </g>
  </g>
</svg>
