<?xml version="1.0" encoding="UTF-8" standalone="no"?>
<!-- Created with Inkscape (http://www.inkscape.org/) -->

<svg
   width="210mm"
   height="297mm"
   viewBox="0 0 210 297"
   version="1.1"
   id="svg5"
   inkscape:version="1.1.2 (0a00cf5339, 2022-02-04)"
   sodipodi:docname="tplanr.svg"
   xmlns:inkscape="http://www.inkscape.org/namespaces/inkscape"
   xmlns:sodipodi="http://sodipodi.sourceforge.net/DTD/sodipodi-0.dtd"
   xmlns="http://www.w3.org/2000/svg"
   xmlns:svg="http://www.w3.org/2000/svg">
  <sodipodi:namedview
     id="namedview7"
     pagecolor="#ffffff"
     bordercolor="#666666"
     borderopacity="1.0"
     inkscape:pageshadow="2"
     inkscape:pageopacity="0.0"
     inkscape:pagecheckerboard="0"
     inkscape:document-units="mm"
     showgrid="false"
     inkscape:zoom="1.1313833"
     inkscape:cx="512.20485"
     inkscape:cy="974.02889"
     inkscape:window-width="2160"
     inkscape:window-height="1325"
     inkscape:window-x="0"
     inkscape:window-y="0"
     inkscape:window-maximized="1"
     inkscape:current-layer="layer1" />
  <defs
     id="defs2">
    <inkscape:path-effect
       effect="fillet_chamfer"
       id="path-effect2697"
       is_visible="true"
       lpeversion="1"
       satellites_param="F,0,0,1,0,5.2916667,0,1 @ F,0,0,1,0,5.2916667,0,1 @ F,0,0,1,0,5.2916667,0,1 @ F,0,0,1,0,5.2916667,0,1 | F,0,0,1,0,5.2916667,0,1 @ F,0,0,1,0,5.2916667,0,1 @ F,0,0,1,0,5.2916667,0,1 @ F,0,0,1,0,5.2916667,0,1 @ F,0,0,1,0,5.2916667,0,1 @ F,0,0,1,0,5.2916667,0,1 @ F,0,0,1,0,5.2916667,0,1 @ F,0,0,1,0,5.2916667,0,1 @ F,0,0,1,0,5.2916667,0,1"
       unit="px"
       method="auto"
       mode="F"
       radius="20"
       chamfer_steps="1"
       flexible="false"
       use_knot_distance="true"
       apply_no_radius="true"
       apply_with_radius="true"
       only_selected="false"
       hide_knots="false" />
    <inkscape:path-effect
       effect="fillet_chamfer"
       id="path-effect2530"
       is_visible="true"
       lpeversion="1"
       satellites_param="F,0,0,1,0,5.2916667,0,1 @ F,0,0,1,0,5.2916667,0,1 @ F,0,0,1,0,5.2916667,0,1 @ F,0,0,1,0,5.2916667,0,1 | F,0,0,1,0,5.2916667,0,1 @ F,0,0,1,0,5.2916667,0,1 @ F,0,0,1,0,5.2916667,0,1 @ F,0,0,1,0,5.2916667,0,1 @ F,0,0,1,0,5.2916667,0,1 @ F,0,0,1,0,5.2916667,0,1 @ F,0,0,1,0,5.2916667,0,1 @ F,0,0,1,0,5.2916667,0,1 @ F,0,0,1,0,5.2916667,0,1"
       unit="px"
       method="auto"
       mode="F"
       radius="20"
       chamfer_steps="1"
       flexible="false"
       use_knot_distance="true"
       apply_no_radius="true"
       apply_with_radius="true"
       only_selected="false"
       hide_knots="false" />
  </defs>
  <g
     inkscape:label="Layer 1"
     inkscape:groupmode="layer"
     id="layer1">
    <path
       id="path51"
       style="fill:#ff6600;stroke-width:0.264583"
       inkscape:transform-center-y="-7.6230972"
       d="m 151.61447,1.967936 -26.40718,45.738809 h 9.8516 l 16.55558,-28.675769 16.55609,28.675769 h 9.85108 z" />
    <path
       id="rect155-9"
       style="fill:#ffcc00;stroke:none;stroke-width:0.265;fill-opacity:1;stroke-miterlimit:4;stroke-dasharray:none"
       d="m 19.249558,101.08628 v 60.22371 a 5.2916667,5.2916667 45 0 0 5.291667,5.29167 h 60.224226 a 5.2916667,5.2916667 135 0 0 5.291667,-5.29167 V 101.08628 A 5.2916667,5.2916667 45 0 0 84.765451,95.794617 H 24.541225 a 5.2916667,5.2916667 135 0 0 -5.291667,5.291663 z m 31.938296,8.6964 16.704538,34.15084 a 2.9874225,2.9874225 3.3819001 0 0 5.193898,0.30693 l 3.857716,-5.97938 a 4.5092254,4.5092254 172.39335 0 1 6.803863,-0.90863 5.0386137,5.0386137 95.027052 0 1 -0.572725,6.51087 l -5.843122,9.05671 a 9.7114339,9.7114339 151.41446 0 1 -8.160451,4.44655 7.6689971,7.6689971 35.829036 0 1 -6.583804,-4.75346 L 51.187889,129.30756 a 2.5883712,2.5883712 179.99964 0 0 -4.650242,3e-5 l -11.399488,23.30549 a 8.4791016,8.4791016 148.0324 0 1 -7.616758,4.75349 3.024525,3.024525 67.865172 0 1 -1.933559,-4.75349 l 20.949802,-42.83039 a 2.5883497,2.5883497 179.99987 0 1 4.65021,-1e-5 z"
       inkscape:path-effect="#path-effect2530"
       inkscape:original-d="m 19.249558,95.794617 v 70.807043 h 70.80756 V 95.794617 Z m 29.61318,9.234583 21.35477,43.6578 9.59528,-14.87248 6.23114,5.60224 -11.58069,17.94981 h -9.55032 l -16.05018,-32.81247 -16.04967,32.81247 h -9.55032 z" />
    <rect
       style="fill:#ff6600;stroke-width:0.047166"
       id="rect155-6"
       width="19.717957"
       height="8.0802813"
       x="69.900925"
       y="162.4527"
       transform="rotate(-52.709633)" />
    <rect
       style="fill:#918a6f;stroke:none;stroke-width:0.264583"
       id="rect155-3"
       width="70.807167"
       height="70.807167"
       x="19.689804"
       y="6.5054226" />
    <path
       id="path51-7-5"
       style="fill:#ffffff;stroke-width:0.371044"
       inkscape:transform-center-y="-12.483907"
       d="M 46.282191,3.3414896 14.569764,78.2453 H 26.400562 L 46.282191,31.28465 66.164442,78.2453 h 11.83018 l 14.34601,-25.69037 -7.72005,-8.01677 -11.88541,21.28382 z" />
    <path
       id="rect2586"
       style="fill:#2c5aa0;fill-opacity:1;stroke:none;stroke-width:0.387911;stroke-miterlimit:4;stroke-dasharray:none"
       d="m 6.4676063,191.17711 v 89.41675 a 5.2916667,5.2916667 45 0 0 5.2916667,5.29167 h 89.416767 a 5.2916667,5.2916667 135 0 0 5.29167,-5.29167 v -89.41675 a 5.2916667,5.2916667 45 0 0 -5.29167,-5.29167 l -89.416767,0 a 5.2916667,5.2916667 135 0 0 -5.2916667,5.29167 z m 44.3126917,8.74857 24.421982,58.37211 a 2.5578338,2.5578338 3.0940607 0 0 4.599105,0.2486 l 7.695121,-13.94441 a 3.8776967,3.8776967 172.65809 0 1 6.204311,-0.7994 l 1.02417,1.0764 a 7.2211182,7.2211182 82.658514 0 1 1.090831,8.46663 l -10.346485,18.74831 a 8.9642512,8.9642512 149.44632 0 1 -7.848441,4.633 H 75.455646 A 7.9501302,7.9501302 33.648036 0 1 68.121558,271.8453 L 50.78032,230.39771 a 2.2139521,2.2139521 179.99976 0 0 -4.0848,2e-5 l -17.340812,41.44755 a 7.9500572,7.9500572 146.35172 0 1 -7.334046,4.88164 h -2.165759 a 3.5221973,3.5221973 56.351784 0 1 -3.249277,-4.88164 l 30.089883,-71.91959 a 2.2139453,2.2139453 179.99995 0 1 4.084789,-1e-5 z"
       inkscape:path-effect="#path-effect2697"
       inkscape:original-d="M 6.4676063,185.88544 V 285.88553 H 106.46771 V 185.88544 Z m 42.2702927,9.15861 28.50678,68.13537 12.808533,-23.21047 8.31938,8.74366 -15.460033,28.01431 h -12.74858 l -21.42608,-51.21083 -21.42557,51.21083 H 14.563236 Z" />
    <text
       xml:space="preserve"
       style="font-style:normal;font-weight:normal;font-size:19.7556px;line-height:1.25;font-family:sans-serif;fill:#000000;fill-opacity:1;stroke:none;stroke-width:0.264583"
       x="120.76517"
       y="232.41757"
       id="text4569"><tspan
         sodipodi:role="line"
         id="tspan4567"
         style="font-style:normal;font-variant:normal;font-weight:bold;font-stretch:normal;font-size:19.7556px;font-family:Ubuntu;-inkscape-font-specification:'Ubuntu Bold';stroke-width:0.264583"
         x="120.76517"
         y="232.41757">tplanr</tspan></text>
    <text
       xml:space="preserve"
       style="font-style:normal;font-weight:normal;font-size:10.5833px;line-height:1.25;font-family:sans-serif;fill:#000000;fill-opacity:1;stroke:none;stroke-width:0.264583"
       x="121.64754"
       y="250.47195"
       id="text4569-0"><tspan
         sodipodi:role="line"
         id="tspan4567-9"
         style="font-style:normal;font-variant:normal;font-weight:normal;font-stretch:normal;font-family:Ubuntu;-inkscape-font-specification:Ubuntu;stroke-width:0.264583"
         x="121.64754"
         y="250.47195">plan | tour | njoy</tspan></text>
  </g>
</svg>
