<?xml version="1.0" encoding="UTF-8" standalone="no"?>
<svg
   version="1.2"
   width="50"
   height="50"
   viewBox="0 0 50 50"
   overflow="inherit"
   id="svg4"
   sodipodi:docname="mountainbike.svg"
   inkscape:version="1.1.2 (0a00cf5339, 2022-02-04)"
   xmlns:inkscape="http://www.inkscape.org/namespaces/inkscape"
   xmlns:sodipodi="http://sodipodi.sourceforge.net/DTD/sodipodi-0.dtd"
   xmlns="http://www.w3.org/2000/svg"
   xmlns:svg="http://www.w3.org/2000/svg">
  <defs
     id="defs8" />
  <sodipodi:namedview
     id="namedview6"
     pagecolor="#ffffff"
     bordercolor="#666666"
     borderopacity="1.0"
     inkscape:pageshadow="2"
     inkscape:pageopacity="0.0"
     inkscape:pagecheckerboard="0"
     showgrid="false"
     inkscape:zoom="8.9802561"
     inkscape:cx="21.602947"
     inkscape:cy="31.958999"
     inkscape:window-width="2160"
     inkscape:window-height="1303"
     inkscape:window-x="0"
     inkscape:window-y="22"
     inkscape:window-maximized="1"
     inkscape:current-layer="svg4" />
  <g
     id="g962"
     transform="rotate(12.256134,16.917144,46.950637)">
    <path
       d="m 19.898043,0.41625758 c -1.790491,0.55248217 -2.854313,2.26068872 -2.56792,4.10247422 0.173653,1.1455724 0.961768,2.1890905 2.02559,2.6908126 0.491036,0.2356331 0.695678,0.2660891 1.585849,0.2660891 0.859178,0 1.094813,-0.041142 1.504097,-0.2350987 C 24.952134,6.0025257 25.289821,2.6881669 23.06974,0.98957816 22.241017,0.35481134 20.88065,0.09887418 19.898043,0.41625758 Z"
       id="path4"
       style="stroke-width:0.00534316" />
    <path
       d="M 16.460792,7.9762871 C 15.898157,8.18093 15.31522,8.5902156 15.028292,8.978663 14.895248,9.1630018 13.841577,11.17844 12.695471,13.449281 l -2.087036,4.122779 v 0.838875 c 0.01023,1.013061 0.27624,1.708741 0.910473,2.29168 0.255937,0.235098 1.626457,1.013061 3.641895,2.05658 1.769653,0.920625 3.253447,1.698054 3.294055,1.739196 0.03047,0.03099 0.08175,0.511341 0.0919,1.063823 l 0.03047,1.002909 -0.520423,0.29708 -0.521493,0.296544 -0.624081,-0.757124 c -1.125268,-1.35075 -2.84416,-2.455179 -4.603662,-2.946215 -0.634232,-0.173654 -1.063822,-0.214796 -2.3119819,-0.214796 -1.3710532,0.01023 -1.6371438,0.04114 -2.4348758,0.276242 -3.4479378,1.053669 -5.8523575,3.774938 -6.4251436,7.273635 -0.16350049,1.033367 -0.061446,2.762413 0.2147948,3.744484 0.6956787,2.465331 2.3835814,4.501608 4.6549564,5.637028 1.4325002,0.705831 2.3531244,0.930778 3.9389732,0.941464 2.6293659,0.02031 4.7676969,-0.880018 6.5678059,-2.772564 1.217171,-1.278616 1.94384,-2.659822 2.281528,-4.317268 0.102057,-0.480884 0.19449,-0.930778 0.214794,-0.992224 0.02031,-0.07159 0.245785,0.08175 0.522025,0.357992 0.982074,0.97192 2.26069,0.992224 3.212306,0.03099 0.491036,-0.480883 0.70583,-0.982071 0.70583,-1.637141 0,-0.31685 0.245252,-0.582938 3.202153,-3.478396 1.749349,-1.718892 3.846538,-3.764785 4.634651,-4.542214 l 1.452805,-1.422348 0.224947,0.70583 c 0.133044,0.378296 0.255937,0.746973 0.276241,0.818572 0.03046,0.06145 -0.245786,0.286393 -0.603777,0.491035 -5.626876,3.294055 -6.087456,11.069414 -0.900321,15.008388 1.56501,1.186716 3.325046,1.7595 5.422233,1.749349 1.575697,-0.01023 2.496322,-0.224947 3.93844,-0.941464 2.619214,-1.299455 4.399019,-3.713493 4.86975,-6.598796 0.163501,-1.05367 0.0716,-2.864465 -0.204642,-3.826233 -0.695678,-2.404419 -2.434875,-4.501608 -4.685411,-5.637028 -1.585849,-0.797733 -3.887681,-1.125269 -5.555279,-0.797733 -0.419437,0.08175 -0.767278,0.143197 -0.777429,0.143197 0,-0.01023 -0.726668,-2.138331 -1.596,-4.726555 l -1.585849,-4.706252 -0.726135,-0.03047 c -0.715982,-0.03099 -0.726135,-0.03099 -0.838876,-0.368142 -0.122891,-0.388982 -0.644383,-0.920626 -1.033365,-1.073974 -0.153348,-0.0513 -1.29892,-0.194491 -2.557768,-0.306698 -1.258315,-0.12289 -2.455181,-0.245784 -2.659825,-0.276239 -0.296545,-0.04114 -0.757125,-0.399134 -2.342973,-1.780341 C 20.195123,9.1229282 19.223203,8.3454991 18.875363,8.1814643 18.189837,7.8432426 17.064568,7.7513404 16.460792,7.9762871 Z m 4.603662,6.6703959 c 0.54233,0.480884 0.838875,0.654536 1.217171,0.736821 0.276242,0.06145 1.800644,0.235099 3.396643,0.388982 l 2.895455,0.266088 0.541797,-0.266088 c 0.306696,-0.15335 0.715982,-0.266091 0.941464,-0.266091 h 0.409285 l 0.501188,1.534556 c 0.276242,0.838875 0.480884,1.544704 0.449894,1.575695 -0.02031,0.03099 -1.933688,0.787582 -4.235519,1.677751 l -4.194377,1.637142 -0.204643,-0.235098 c -0.11274,-0.133044 -1.421813,-0.869865 -2.915759,-1.647294 -1.493412,-0.767278 -2.751725,-1.432501 -2.792867,-1.473109 -0.05129,-0.04114 0.491036,-1.238009 1.207018,-2.64967 l 1.289304,-2.578072 0.388981,0.337687 c 0.204644,0.183271 0.705831,0.623012 1.104965,0.9607 z m 11.028806,5.780224 c 0.08174,0.368144 0.368143,0.07159 -5.473528,5.770073 l -3.222456,3.150859 -0.0716,-0.399135 c -0.07159,-0.429589 -0.316849,-5.370939 -0.266089,-5.412081 0.08175,-0.06145 8.747278,-3.416947 8.849332,-3.416947 0.06144,-0.0096 0.15335,0.133579 0.18434,0.307231 z M 11.171603,25.5729 c 0.961769,0.174186 1.841252,0.532178 2.629367,1.063822 0.685526,0.470731 1.718892,1.544706 1.596,1.667598 -0.04114,0.04114 -0.97192,0.562634 -2.056046,1.16641 l -1.984981,1.094813 -0.521493,-0.224947 c -0.9516159,-0.409285 -1.9951339,-0.0919 -2.5267773,0.777429 -0.9206264,1.473108 0.5113404,3.447938 2.1789383,2.99751 0.522025,-0.133044 1.023215,-0.501188 1.268465,-0.910473 l 0.173651,-0.306698 h 2.393734 2.383582 l -0.07159,0.378296 C 16.19471,35.721687 14.394068,37.798572 12.092237,38.534859 11.161459,38.84209 9.4014241,38.913154 8.5117889,38.688207 6.1896462,38.105269 4.2864145,36.32493 3.611574,34.094697 2.9773416,32.017813 3.3967792,29.828723 4.7678327,28.017928 c 0.8388754,-1.104966 2.4247238,-2.10734 3.7444823,-2.373431 0.3066981,-0.06144 0.6545361,-0.133044 0.7672771,-0.153348 0.418904,-0.08175 1.1450379,-0.0513 1.8920109,0.08175 z m 27.632659,0.11274 c 1.248162,0.327536 2.690812,1.248161 3.478394,2.230234 0.572786,0.705829 1.186714,2.005285 1.371053,2.885302 0.654537,3.120403 -1.074508,6.322556 -4.092321,7.59102 -1.769654,0.746974 -4.224834,0.54233 -5.953878,-0.501187 -1.238008,-0.736822 -2.414572,-2.20993 -2.905608,-3.662734 -0.317384,-0.930777 -0.378295,-2.486168 -0.143196,-3.519535 0.347839,-1.606152 1.401509,-3.161011 2.721268,-4.041028 0.347839,-0.235099 0.665223,-0.419437 0.705831,-0.419437 0.0513,0 0.51134,1.278616 1.023215,2.834009 0.521491,1.565009 1.013061,2.925911 1.104963,3.017814 0.378296,0.439741 1.248162,0.08175 1.248162,-0.501189 0,-0.163501 -0.419438,-1.544705 -0.930778,-3.07926 -0.51134,-1.534553 -0.910473,-2.823857 -0.880017,-2.844161 0.265554,-0.26609 2.219546,-0.255937 3.252912,0.01023 z m -20.072095,3.406796 v 0.685527 l -0.2351,-0.613929 c -0.204642,-0.532178 -0.214793,-0.634233 -0.08174,-0.736822 0.255402,-0.204642 0.327001,-0.05129 0.316848,0.665224 z m -2.322669,1.063822 c 0.0919,0.296545 0.194491,0.695679 0.235099,0.869866 l 0.07159,0.337687 h -1.831099 -1.820947 l 1.534554,-0.859181 c 0.849027,-0.47073 1.56501,-0.869864 1.596001,-0.869864 0.03099,-0.01073 0.133044,0.235099 0.214795,0.521492 z"
       id="path6"
       style="stroke-width:0.00534316" />
  </g>
  <path
     d="m 17.560547,43.360561 c -1.93316,0.07186 -4.062903,0.508463 -5.930697,1.220945 -0.35512,0.132743 -1.158042,0.475277 -1.7746237,0.756923 -1.7277947,0.784625 -2.4751073,1.060788 -3.9599766,1.46421 -1.4756011,0.39794 -2.3536447,0.712771 -2.7648618,1.005671 -0.2990226,0.204309 -0.6536546,0.640917 -0.7473126,0.91708 l -0.065365,0.176894 H 25.004893 l 22.677427,-0.0055 -0.681947,-0.381202 c -1.148774,-0.6464 -2.783398,-1.226716 -4.268267,-1.519328 -1.195603,-0.237494 -2.306816,-0.309348 -4.202903,-0.27068 -1.438528,0.03319 -1.774623,0.02222 -2.335108,-0.06089 -0.924872,-0.138226 -1.933159,-0.403423 -2.811203,-0.734703 -1.653161,-0.624468 -3.026323,-0.889665 -4.847288,-0.933816 -0.616582,-0.01645 -1.363894,0 -1.653161,0.0277 -0.522924,0.06089 -0.551216,0.05541 -1.120969,-0.132454 -1.186335,-0.397939 -3.324859,-1.011154 -4.109732,-1.176794 -1.242432,-0.254808 -2.8673,-0.398228 -4.091195,-0.354076 z"
     id="path8"
     style="stroke-width:0.00375187" />
</svg>
